#!OML:ASF X:\für Bonn\!DataBase\2005_08_12_Daniel\c3d\Daniel.ASF
:FULLY-SPECIFIED
:DEGREES
286
root 1.92729 17.2308 -1.78032 168.666 -1.77527 -179.918
lowerback 26.6184 -2.26479 6.28741
upperback 6.9204 -2.89627 0.870693
thorax -7.18379 -2.16583 -1.62832
lowerneck 5.93273 -2.0187 -0.0299951
upperneck 24.1043 0.767528 -1.80371
head 6.37899 1.40345 -0.420353
rclavicle -2.14687e-014 -2.3059e-014
rhumerus -30.4813 -15.8131 -78.4898
rradius 13.774
rwrist 23.9505
rhand -18.0368 14.0316
rfingers 7.12502
rthumb 8.23485 -15.7879
lclavicle -2.14687e-014 -2.3059e-014
lhumerus -23.5498 19.6345 88.1644
lradius 32.8241
lwrist -22.1867
lhand -7.19986 -7.64993
lfingers 7.12502
lthumb 18.6786 21.4733
rfemur 6.30522 10.3117 25.8677
rtibia 28.9244
rfoot -29.76 -4.84382
rtoes -10.4415
lfemur -18.6871 -3.14579 -13.1128
ltibia 63.9167
lfoot -11.0908 0.01866
ltoes -11.1171
287
root 1.93325 17.2275 -1.84314 168.574 -1.77256 -179.991
lowerback 26.5649 -2.23271 6.25685
upperback 6.86528 -2.84671 0.845875
thorax -7.21663 -2.13541 -1.65549
lowerneck 5.78025 -1.98195 -0.0815529
upperneck 24.2731 0.856376 -1.83784
head 6.46069 1.44705 -0.41674
rclavicle 2.18663e-015 0
rhumerus -30.7768 -18.3377 -76.9445
rradius 12.9534
rwrist 26.5549
rhand -17.9949 13.7671
rfingers 7.12502
rthumb 8.27522 -16.0508
lclavicle 2.18663e-015 0
lhumerus -23.9052 20.0273 87.7591
lradius 32.3085
lwrist -22.0729
lhand -7.55532 -7.52676
lfingers 7.12502
lthumb 18.3367 21.629
rfemur 6.82048 10.4987 25.9712
rtibia 28.67
rfoot -29.7377 -5.076
rtoes -10.202
lfemur -18.9517 -3.0665 -13.1748
ltibia 63.6194
lfoot -11.4573 -0.853049
ltoes -11.0993
288
root 1.93952 17.2262 -1.90625 168.512 -1.79553 -180.041
lowerback 26.5172 -2.20743 6.23509
upperback 6.7921 -2.79713 0.847425
thorax -7.27155 -2.10452 -1.65765
lowerneck 5.66406 -1.93508 -0.193328
upperneck 24.3858 0.947775 -1.85383
head 6.51843 1.48603 -0.397409
rclavicle 2.06736e-014 -1.19271e-014
rhumerus -31.2247 -21.2682 -75.0583
rradius 12.1214
rwrist 29.6414
rhand -17.984 13.5659
rfingers 7.12502
rthumb 8.28574 -16.2516
lclavicle 2.06736e-014 -1.19271e-014
lhumerus -24.2963 20.5341 87.3244
lradius 31.8234
lwrist -22.004
lhand -7.77506 -7.4707
lfingers 7.12502
lthumb 18.1253 21.7048
rfemur 7.3401 10.7129 26.1129
rtibia 28.362
rfoot -29.7434 -5.37317
rtoes -10.0016
lfemur -19.2517 -3.01684 -13.225
ltibia 63.1587
lfoot -11.7785 -1.70489
ltoes -11.2219
289
root 1.9453 17.2276 -1.97078 168.492 -1.81214 -180.114
lowerback 26.4275 -2.17029 6.19526
upperback 6.72347 -2.73962 0.826307
thorax -7.30066 -2.06799 -1.67929
lowerneck 5.55114 -1.89704 -0.268657
upperneck 24.4782 1.01725 -1.84839
head 6.56851 1.5174 -0.378362
rclavicle -1.19271e-015 1.27222e-014
rhumerus -31.8059 -24.1723 -73.1158
rradius 11.4105
rwrist 32.6148
rhand -17.9667 13.3713
rfingers 7.12502
rthumb 8.30247 -16.4456
lclavicle -1.19271e-015 1.27222e-014
lhumerus -24.6255 21.1061 86.8442
lradius 31.2638
lwrist -22.0823
lhand -7.95222 -7.4082
lfingers 7.12502
lthumb 17.9548 21.783
rfemur 7.84648 10.8543 26.1936
rtibia 27.976
rfoot -29.6778 -5.61047
rtoes -9.92365
lfemur -19.5435 -2.99052 -13.3146
ltibia 62.5272
lfoot -12.0937 -2.42186
ltoes -11.5349
290
root 1.95073 17.2329 -2.03681 168.448 -1.84841 -180.185
lowerback 26.3535 -2.14068 6.16466
upperback 6.67643 -2.69571 0.804995
thorax -7.31432 -2.04008 -1.70181
lowerneck 5.44518 -1.85084 -0.392753
upperneck 24.5441 1.08683 -1.81378
head 6.60883 1.54478 -0.341799
rclavicle 1.86858e-014 -1.82882e-014
rhumerus -32.5577 -27.1989 -70.9839
rradius 10.7992
rwrist 35.6846
rhand -17.9054 13.2683
rfingers 7.12502
rthumb 8.36166 -16.5462
lclavicle 1.86858e-014 -1.82882e-014
lhumerus -24.9383 21.6941 86.338
lradius 30.7023
lwrist -22.1529
lhand -8.05886 -7.40137
lfingers 7.12502
lthumb 17.8522 21.7992
rfemur 8.4355 11.0325 26.2972
rtibia 27.5235
rfoot -29.6646 -5.87321
rtoes -9.80765
lfemur -19.7358 -3.04106 -13.427
ltibia 61.6919
lfoot -12.3281 -3.03353
ltoes -11.7561
291
root 1.95495 17.2383 -2.10422 168.447 -1.89085 -180.238
lowerback 26.2538 -2.11362 6.13359
upperback 6.60786 -2.64878 0.803265
thorax -7.33825 -2.00887 -1.70382
lowerneck 5.39584 -1.81066 -0.554927
upperneck 24.5837 1.151 -1.78683
head 6.63122 1.56709 -0.301744
rclavicle 2.04748e-014 1.59028e-015
rhumerus -33.5148 -30.1005 -68.7074
rradius 10.2972
rwrist 38.6618
rhand -17.874 13.1817
rfingers 7.12502
rthumb 8.39197 -16.6316
lclavicle 2.04748e-014 1.59028e-015
lhumerus -25.2589 22.3702 85.8072
lradius 30.1215
lwrist -22.3795
lhand -8.08757 -7.33977
lfingers 7.12502
lthumb 17.8246 21.8633
rfemur 8.99739 11.1679 26.3954
rtibia 27.019
rfoot -29.5824 -6.13433
rtoes -9.72054
lfemur -19.9239 -3.1014 -13.5375
ltibia 60.6798
lfoot -12.5103 -3.48044
ltoes -12.0974
292
root 1.95941 17.2451 -2.17241 168.475 -1.92624 -180.299
lowerback 26.1473 -2.08079 6.09433
upperback 6.53702 -2.59639 0.788851
thorax -7.36128 -1.97431 -1.71715
lowerneck 5.35786 -1.76945 -0.690977
upperneck 24.5805 1.20466 -1.75179
head 6.63726 1.58463 -0.264572
rclavicle 6.75868e-015 -3.97569e-014
rhumerus -33.5211 -30.2911 -68.4898
rradius 9.85395
rwrist 38.4342
rhand -18.1183 12.6488
rfingers 7.12502
rthumb 8.15614 -17.1738
lclavicle 6.75868e-015 -3.97569e-014
lhumerus -25.5694 23.0482 85.2391
lradius 29.5344
lwrist -22.7312
lhand -8.115 -7.24097
lfingers 7.12502
lthumb 17.7982 21.9645
rfemur 9.55389 11.3543 26.502
rtibia 26.4797
rfoot -29.5088 -6.44627
rtoes -9.64171
lfemur -20.079 -3.20992 -13.6554
ltibia 59.4971
lfoot -12.6208 -3.77889
ltoes -12.4195
293
root 1.96289 17.2502 -2.2417 168.524 -1.98341 -180.338
lowerback 26.003 -2.05768 6.08318
upperback 6.47426 -2.55254 0.774087
thorax -7.35758 -1.9436 -1.74585
lowerneck 5.37879 -1.71586 -0.848956
upperneck 24.5246 1.26013 -1.67089
head 6.61592 1.60366 -0.209655
rclavicle -1.96797e-014 1.19271e-014
rhumerus -33.5308 -30.4907 -68.272
rradius 9.45948
rwrist 38.1293
rhand -18.3256 12.1192
rfingers 7.12502
rthumb 7.95611 -17.7111
lclavicle -1.96797e-014 1.19271e-014
lhumerus -25.8798 23.7674 84.6481
lradius 28.952
lwrist -23.117
lhand -8.18111 -7.10332
lfingers 7.12502
lthumb 17.7346 22.108
rfemur 10.0997 11.5257 26.6201
rtibia 25.9277
rfoot -29.458 -6.74516
rtoes -9.55791
lfemur -20.2181 -3.33952 -13.7625
ltibia 58.1834
lfoot -12.7268 -3.97391
ltoes -12.7198
294
root 1.96468 17.2541 -2.31125 168.587 -2.07851 -180.391
lowerback 25.8569 -2.03879 6.06211
upperback 6.39806 -2.51277 0.752975
thorax -7.36837 -1.91355 -1.77421
lowerneck 5.49499 -1.6866 -0.93904
upperneck 24.408 1.2891 -1.64709
head 6.55872 1.61346 -0.18704
rclavicle 5.76476e-015 8.74653e-015
rhumerus -33.6279 -30.6896 -68.0008
rradius 9.12826
rwrist 37.8152
rhand -18.5559 11.6823
rfingers 7.12502
rthumb 7.73383 -18.1562
lclavicle 5.76476e-015 8.74653e-015
lhumerus -26.2153 24.5023 84.0211
lradius 28.3583
lwrist -23.6601
lhand -8.28836 -6.95121
lfingers 7.12502
lthumb 17.6314 22.2694
rfemur 10.6471 11.6314 26.6978
rtibia 25.3493
rfoot -29.3773 -7.01631
rtoes -9.55038
lfemur -20.3527 -3.52228 -13.9015
ltibia 56.7712
lfoot -12.9602 -4.00219
ltoes -13.0836
295
root 1.96588 17.2588 -2.38211 168.68 -2.15611 -180.435
lowerback 25.678 -2.01865 6.04168
upperback 6.33283 -2.47545 0.736137
thorax -7.35015 -1.88464 -1.79891
lowerneck 5.56506 -1.63309 -1.06093
upperneck 24.2892 1.33966 -1.59609
head 6.50849 1.62975 -0.149435
rclavicle 1.21259e-014 -3.97569e-015
rhumerus -33.743 -30.8569 -67.7243
rradius 8.904
rwrist 37.4595
rhand -18.6977 11.274
rfingers 7.12502
rthumb 7.59694 -18.5696
lclavicle 1.21259e-014 -3.97569e-015
lhumerus -26.5418 25.2547 83.3835
lradius 27.766
lwrist -24.1592
lhand -8.45824 -6.77372
lfingers 7.12502
lthumb 17.4679 22.4615
rfemur 11.1819 11.7486 26.7765
rtibia 24.7267
rfoot -29.2933 -7.28047
rtoes -9.38946
lfemur -20.4764 -3.76702 -14.0176
ltibia 55.2796
lfoot -13.2073 -3.87054
ltoes -13.0411
296
root 1.96728 17.2641 -2.45603 168.768 -2.26413 -180.458
lowerback 25.4797 -1.99622 6.02987
upperback 6.28368 -2.43733 0.726932
thorax -7.30363 -1.85588 -1.82138
lowerneck 5.64406 -1.58228 -1.1421
upperneck 24.1399 1.382 -1.55598
head 6.44664 1.64353 -0.123207
rclavicle -2.22639e-014 -2.06736e-014
rhumerus -33.8655 -31.0326 -67.3973
rradius 8.68996
rwrist 37.0774
rhand -18.8192 10.9469
rfingers 7.12502
rthumb 7.47966 -18.9009
lclavicle -2.22639e-014 -2.06736e-014
lhumerus -26.8543 26.09 82.7132
lradius 27.1629
lwrist -24.8269
lhand -8.61743 -6.6083
lfingers 7.12502
lthumb 17.3147 22.6404
rfemur 11.7866 11.9096 26.9087
rtibia 24.0387
rfoot -29.2238 -7.59669
rtoes -9.37702
lfemur -20.5815 -4.05891 -14.1112
ltibia 53.7417
lfoot -13.4578 -3.57966
ltoes -13.025
297
root 1.96864 17.2714 -2.53174 168.889 -2.42179 -180.502
lowerback 25.2514 -1.98519 5.98476
upperback 6.2207 -2.41906 0.714646
thorax -7.25834 -1.83423 -1.82269
lowerneck 5.70135 -1.54598 -1.21199
upperneck 24.0079 1.40939 -1.5365
head 6.39419 1.6497 -0.105866
rclavicle -2.28602e-014 8.74653e-015
rhumerus -34.0334 -31.1799 -67.0344
rradius 8.52271
rwrist 36.7224
rhand -18.8865 10.6038
rfingers 7.12502
rthumb 7.41475 -19.2463
lclavicle -2.28602e-014 8.74653e-015
lhumerus -27.188 26.8819 82.0254
lradius 26.5412
lwrist -25.4356
lhand -8.85096 -6.4294
lfingers 7.12502
lthumb 17.0899 22.8389
rfemur 12.3886 12.0239 27.0044
rtibia 23.2946
rfoot -29.1379 -7.93376
rtoes -9.18459
lfemur -20.7139 -4.3836 -14.2397
ltibia 52.1643
lfoot -13.7065 -3.15102
ltoes -13.2452
